<svg width="54" height="70" viewBox="0 0 54 70" fill="none" xmlns="http://www.w3.org/2000/svg">
<mask id="path-1-outside-1_138_6199" maskUnits="userSpaceOnUse" x="0" y="0" width="54" height="70" fill="black">
<rect fill="white" width="54" height="70"/>
<path fill-rule="evenodd" clip-rule="evenodd" d="M26.9995 6C15.4017 6 6 15.1913 6 26.5296C6 29.1602 6.50601 31.675 7.42775 33.9867C8.93638 38.7368 14.8703 48.2894 25.996 62.7549C26.6177 63.621 27.4143 63.5365 27.9984 62.7549C39.0761 48.3528 45.0062 38.8195 46.5469 34.0483C47.4846 31.7201 48 29.1832 48 26.5296C48 15.1913 38.5983 6 26.9995 6ZM27 40C34.1797 40 40 34.1797 40 27C40 19.8203 34.1797 14 27 14C19.8203 14 14 19.8203 14 27C14 34.1797 19.8203 40 27 40Z"/>
</mask>
<path fill-rule="evenodd" clip-rule="evenodd" d="M26.9995 6C15.4017 6 6 15.1913 6 26.5296C6 29.1602 6.50601 31.675 7.42775 33.9867C8.93638 38.7368 14.8703 48.2894 25.996 62.7549C26.6177 63.621 27.4143 63.5365 27.9984 62.7549C39.0761 48.3528 45.0062 38.8195 46.5469 34.0483C47.4846 31.7201 48 29.1832 48 26.5296C48 15.1913 38.5983 6 26.9995 6ZM27 40C34.1797 40 40 34.1797 40 27C40 19.8203 34.1797 14 27 14C19.8203 14 14 19.8203 14 27C14 34.1797 19.8203 40 27 40Z" fill="black"/>
<path d="M7.42775 33.9867L13.1463 32.1705L13.0809 31.9648L13.001 31.7644L7.42775 33.9867ZM25.996 62.7549L30.8703 59.2562L30.8125 59.1756L30.752 59.097L25.996 62.7549ZM27.9984 62.7549L23.2425 59.0968L23.2171 59.1298L23.1922 59.1632L27.9984 62.7549ZM46.5469 34.0483L40.9813 31.8066L40.9022 32.0031L40.8371 32.2046L46.5469 34.0483ZM12 26.5296C12 18.6323 18.5866 12 26.9995 12V0C12.2167 0 0 11.7503 0 26.5296H12ZM13.001 31.7644C12.3556 30.1458 12 28.3842 12 26.5296H0C0 29.9362 0.656385 33.2043 1.85447 36.209L13.001 31.7644ZM30.752 59.097C25.2539 51.9484 21.0995 46.0919 18.1605 41.4954C15.1422 36.7748 13.6488 33.7526 13.1463 32.1705L1.70923 35.8029C2.71537 38.9708 4.94323 43.1 8.05044 47.9597C11.237 52.9434 15.6123 59.0958 21.24 66.4128L30.752 59.097ZM23.1922 59.1632C23.535 58.7045 24.7021 57.4398 26.83 57.3755C29.1206 57.3063 30.4512 58.6723 30.8703 59.2562L21.1216 66.2535C22.1625 67.7037 24.2022 69.4604 27.1925 69.37C30.0202 69.2846 31.8777 67.5869 32.8046 66.3466L23.1922 59.1632ZM40.8371 32.2046C40.3175 33.8139 38.8091 36.8479 35.7957 41.5552C32.8589 46.1431 28.7167 51.9799 23.2425 59.0968L32.7543 66.413C38.3579 59.1278 42.7195 52.997 45.9024 48.0248C49.0087 43.1722 51.2356 39.0539 52.2566 35.8919L40.8371 32.2046ZM42 26.5296C42 28.3999 41.6378 30.1767 40.9813 31.8066L52.1124 36.2899C53.3314 33.2635 54 29.9666 54 26.5296H42ZM26.9995 12C35.4135 12 42 18.6325 42 26.5296H54C54 11.7501 41.7831 0 26.9995 0V12ZM34 27C34 30.866 30.866 34 27 34V46C37.4934 46 46 37.4934 46 27H34ZM27 20C30.866 20 34 23.134 34 27H46C46 16.5066 37.4934 8 27 8V20ZM20 27C20 23.134 23.134 20 27 20V8C16.5066 8 8 16.5066 8 27H20ZM27 34C23.134 34 20 30.866 20 27H8C8 37.4934 16.5066 46 27 46V34Z" fill="white" mask="url(#path-1-outside-1_138_6199)"/>
<circle cx="27" cy="27" r="8" fill="#F9C859"/>
</svg>
